<svg xmlns="http://www.w3.org/2000/svg" width="199.185" height="32.803" viewBox="0 0 199.185 32.803">
  <g id="Group_1" data-name="Group 1" transform="translate(0.513 0.75)">
    <g id="Final" transform="translate(41.716)">
      <g id="Orders-revamp---List---Alteration" transform="translate(0 0)">
        <g id="Group-17-Copy-189" transform="translate(0 0)">
          <g id="Group-9" transform="translate(0 0)">
            <g id="Group-5">
              <g id="Group-10">
                <path id="Path" d="M12.322,11.537,2.973,12.961,2.814,13a1.212,1.212,0,0,0-.47,1.991L9.109,21.9l-1.6,9.757-.016.159a1.14,1.14,0,0,0,1.662,1.093L17.522,28.3l8.363,4.606.14.065a1.153,1.153,0,0,0,1.506-1.318l-1.6-9.757L32.7,14.988l.108-.126a1.2,1.2,0,0,0-.737-1.9l-9.35-1.424L18.539,2.662a1.112,1.112,0,0,0-2.035,0Z" transform="translate(-2 -2)" fill="none" stroke="#a9abb3" stroke-linejoin="round" stroke-width="1.5" fill-rule="evenodd"/>
              </g>
            </g>
          </g>
        </g>
      </g>
    </g>
    <g id="Final-2" data-name="Final" transform="translate(83.432)">
      <g id="Orders-revamp---List---Alteration-2" data-name="Orders-revamp---List---Alteration" transform="translate(0 0)">
        <g id="Group-17-Copy-189-2" data-name="Group-17-Copy-189" transform="translate(0 0)">
          <g id="Group-9-2" data-name="Group-9" transform="translate(0 0)">
            <g id="Group-5-2" data-name="Group-5">
              <g id="Group-10-2" data-name="Group-10">
                <path id="Path-2" data-name="Path" d="M12.322,11.537,2.973,12.961,2.814,13a1.212,1.212,0,0,0-.47,1.991L9.109,21.9l-1.6,9.757-.016.159a1.14,1.14,0,0,0,1.662,1.093L17.522,28.3l8.363,4.606.14.065a1.153,1.153,0,0,0,1.506-1.318l-1.6-9.757L32.7,14.988l.108-.126a1.2,1.2,0,0,0-.737-1.9l-9.35-1.424L18.539,2.662a1.112,1.112,0,0,0-2.035,0Z" transform="translate(-2 -2)" fill="none" stroke="#a9abb3" stroke-linejoin="round" stroke-width="1.5" fill-rule="evenodd"/>
              </g>
            </g>
          </g>
        </g>
      </g>
    </g>
    <g id="Final-3" data-name="Final" transform="translate(125.148)">
      <g id="Orders-revamp---List---Alteration-3" data-name="Orders-revamp---List---Alteration" transform="translate(0 0)">
        <g id="Group-17-Copy-189-3" data-name="Group-17-Copy-189" transform="translate(0 0)">
          <g id="Group-9-3" data-name="Group-9" transform="translate(0 0)">
            <g id="Group-5-3" data-name="Group-5">
              <g id="Group-10-3" data-name="Group-10">
                <path id="Path-3" data-name="Path" d="M12.322,11.537,2.973,12.961,2.814,13a1.212,1.212,0,0,0-.47,1.991L9.109,21.9l-1.6,9.757-.016.159a1.14,1.14,0,0,0,1.662,1.093L17.522,28.3l8.363,4.606.14.065a1.153,1.153,0,0,0,1.506-1.318l-1.6-9.757L32.7,14.988l.108-.126a1.2,1.2,0,0,0-.737-1.9l-9.35-1.424L18.539,2.662a1.112,1.112,0,0,0-2.035,0Z" transform="translate(-2 -2)" fill="none" stroke="#a9abb3" stroke-linejoin="round" stroke-width="1.5" fill-rule="evenodd"/>
              </g>
            </g>
          </g>
        </g>
      </g>
    </g>
    <g id="Final-4" data-name="Final" transform="translate(166.863)">
      <g id="Orders-revamp---List---Alteration-4" data-name="Orders-revamp---List---Alteration" transform="translate(0 0)">
        <g id="Group-17-Copy-189-4" data-name="Group-17-Copy-189" transform="translate(0 0)">
          <g id="Group-9-4" data-name="Group-9" transform="translate(0 0)">
            <g id="Group-5-4" data-name="Group-5">
              <g id="Group-10-4" data-name="Group-10">
                <path id="Path-4" data-name="Path" d="M12.322,11.537,2.973,12.961,2.814,13a1.212,1.212,0,0,0-.47,1.991L9.109,21.9l-1.6,9.757-.016.159a1.14,1.14,0,0,0,1.662,1.093L17.522,28.3l8.363,4.606.14.065a1.153,1.153,0,0,0,1.506-1.318l-1.6-9.757L32.7,14.988l.108-.126a1.2,1.2,0,0,0-.737-1.9l-9.35-1.424L18.539,2.662a1.112,1.112,0,0,0-2.035,0Z" transform="translate(-2 -2)" fill="#fff" stroke="#a9abb3" stroke-linejoin="round" stroke-width="1.5" fill-rule="evenodd"/>
              </g>
            </g>
          </g>
        </g>
      </g>
    </g>
    <path id="filled_star" d="M26.114,30.809l-2.2-9.893a.855.855,0,0,1,.254-.816l7.32-6.66a.857.857,0,0,0,.235-.885.8.8,0,0,0-.687-.571L21.4,11.125a.8.8,0,0,1-.663-.505L16.973,1.291a.78.78,0,0,0-1.46,0L11.745,10.62a.8.8,0,0,1-.663.505l-9.634.858a.8.8,0,0,0-.688.57.857.857,0,0,0,.234.886l7.32,6.66a.855.855,0,0,1,.254.815l-2.2,9.9a.852.852,0,0,0,.306.863.764.764,0,0,0,.878.038l8.279-5.247a.763.763,0,0,1,.822,0l8.277,5.247a.764.764,0,0,0,.878-.038.852.852,0,0,0,.306-.863Z" transform="translate(-0.72 -0.301)" fill="none" stroke="#a9abb3" stroke-width="1" fill-rule="evenodd"/>
  </g>
</svg>
