<svg xmlns="http://www.w3.org/2000/svg" width="32.568" height="32.564" viewBox="0 0 32.568 32.564">
  <g id="Final" transform="translate(0.759 0.75)">
    <g id="Orders-revamp---List---Alteration" transform="translate(0 0)">
      <g id="Group-17-Copy-189" transform="translate(0 0)">
        <g id="Group-9" transform="translate(0 0)">
          <g id="Group-5">
            <g id="Group-10">
              <path id="Path" d="M12.322,11.537,2.973,12.961,2.814,13a1.212,1.212,0,0,0-.47,1.991L9.109,21.9l-1.6,9.757-.016.159a1.14,1.14,0,0,0,1.662,1.093L17.522,28.3l8.363,4.606.14.065a1.153,1.153,0,0,0,1.506-1.318l-1.6-9.757L32.7,14.988l.108-.126a1.2,1.2,0,0,0-.737-1.9l-9.35-1.424L18.539,2.662a1.112,1.112,0,0,0-2.035,0Z" transform="translate(-2 -2)" fill="#fff" stroke="#a9abb3" stroke-linejoin="round" stroke-width="1.5" fill-rule="evenodd"/>
            </g>
          </g>
        </g>
      </g>
    </g>
  </g>
</svg>
